# xmcd CD database file
#
# Track frame offsets:
#	150
#	48068
#	84721
#	121958
#	151701
#	180480
#	221815
#
# Disc length: 3444 seconds
#
# Revision: 0
# Processed by: cddbd v1.5.1PL0 Copyright (c) Steve Scherf et al.
# Submitted via: CDex 1.51
#
DISCID=510d7207
DTITLE=Keith Jarrett - Live in Paris - Wisper Not - Vol 2
DYEAR=1999
DGENRE=Jazz
TTITLE0=What Is This Thing Called Love
TTITLE1=Conception
TTITLE2=Prelude To A Kiss
TTITLE3=Hallucinations
TTITLE4=All My Tomorrows
TTITLE5=Poinciana
TTITLE6=When I Fall In Love
EXTD=YEAR: 1999
EXTT0=
EXTT1=
EXTT2=
EXTT3=
EXTT4=
EXTT5=
EXTT6=
PLAYORDER=
